# xmcd
#
# Track frame offsets: 
#        150
#        13291
#        26919
#        39536
#        52395
#        66609
#        77727
#        101393
#        116071
#        128111
#        141164
#        154125
#        170754
#        186895
#        198043
#        215907
#        228660
#        238794
#        248672
#        262199
#        271937
#        283689
#        293359
#        304037
#        316844
#        326972
#
# Disc length: 4503 seconds
#
# Revision: 0
# Processed by: cddbd v1.5.2PL0 Copyright (c) Steve Scherf et al.
# Submitted via: ExactAudioCopyFreeDBPlugin 1.0
#
DISCID=9711951a
DTITLE=B.B. King - Blues In Transition [CD 2)
DYEAR=2015
DGENRE=Blues
TTITLE0=Someday, somewhere
TTITLE1=Sneakin' Around
TTITLE2=Ten Long Years
TTITLE3=Be careful with a fool
TTITLE4=Whole Lotta Love
TTITLE5=Days of old
TTITLE6=You Done Lost Your Good Thing Now
TTITLE7=Mr. Pawnbroker
TTITLE8=Understand
TTITLE9=Someday baby
TTITLE10=Drivin' Wheel
TTITLE11=Walking Dr. Bill
TTITLE12=My own fault
TTITLE13=Catfish Blues
TTITLE14=Hold That Train
TTITLE15=Please Set The Date
TTITLE16=I'm gonna sit in 'til you give in
TTITLE17=You ask me
TTITLE18=Blues At Midnight
TTITLE19=My baby's coming home
TTITLE20=Chains of love
TTITLE21=Sneakin' Around
TTITLE22=Tomorrow night
TTITLE23=A mother's love
TTITLE24=Guess Who
TTITLE25=By myself
EXTD=
EXTT0=
EXTT1=
EXTT2=
EXTT3=
EXTT4=
EXTT5=
EXTT6=
EXTT7=
EXTT8=
EXTT9=
EXTT10=
EXTT11=
EXTT12=
EXTT13=
EXTT14=
EXTT15=
EXTT16=
EXTT17=
EXTT18=
EXTT19=
EXTT20=
EXTT21=
EXTT22=
EXTT23=
EXTT24=
EXTT25=
PLAYORDER=
